<?xml version="1.0" standalone="no"?>
<!DOCTYPE svg PUBLIC "-//W3C//DTD SVG 20010904//EN"
 "http://www.w3.org/TR/2001/REC-SVG-20010904/DTD/svg10.dtd">
<svg version="1.0" xmlns="http://www.w3.org/2000/svg"
 width="256.000000pt" height="256.000000pt" viewBox="0 0 256.000000 256.000000"
 preserveAspectRatio="xMidYMid meet">
<metadata>
Created by potrace 1.11, written by Peter Selinger 2001-2013
</metadata>
<g transform="translate(0.000000,256.000000) scale(0.100000,-0.100000)"
fill="#000000" stroke="none">
<path d="M395 2126 c-37 -16 -70 -52 -84 -89 -8 -19 -11 -263 -11 -751 l0
-722 23 -44 c44 -86 -25 -80 967 -80 833 0 877 1 910 19 19 10 45 36 57 57
l23 39 -3 742 c-2 731 -2 742 -23 769 -11 15 -33 37 -48 48 -27 21 -36 21
-904 23 -716 2 -883 0 -907 -11z m615 -136 l0 -70 -210 0 -210 0 0 70 0 70
210 0 210 0 0 -70z m1120 -140 l0 -140 -840 0 -840 0 0 70 0 70 353 0 353 0
34 70 34 70 453 0 453 0 0 -140z m-768 -219 c113 -19 233 -102 292 -204 74
-126 72 -309 -5 -428 -84 -132 -206 -199 -359 -199 -129 0 -222 40 -306 133
-63 69 -93 131 -107 218 -39 250 149 476 403 488 14 0 51 -3 82 -8z m768 -976
l0 -65 -840 0 -840 0 0 65 0 65 840 0 840 0 0 -65z"/>
<path d="M1198 1483 c-138 -46 -218 -204 -178 -349 45 -161 241 -245 395 -169
99 48 155 142 155 259 0 187 -191 319 -372 259z m117 -123 c0 -20 -7 -26 -37
-35 -48 -13 -85 -49 -95 -94 -7 -29 -13 -36 -33 -36 -19 0 -26 6 -28 25 -12
83 73 174 158 168 30 -3 35 -7 35 -28z"/>
</g>
</svg>
